# xmcd
#
# Track frame offsets: 
#        150
#        21214
#        42468
#        59693
#        76866
#        96798
#        122837
#        141751
#        159474
#        183856
#        199962
#        221264
#
# Disc length: 3202 seconds
#
# Revision: 1
# Processed by: cddbd v1.5.2PL0 Copyright (c) Steve Scherf et al.
# Submitted via: ExactAudioCopy v0.95b4
#
DISCID=a50c800c
DTITLE=Diederik van Eck - Van Gogh by van Eck
DYEAR=2005
DGENRE=Pop
TTITLE0=Self-Portrait
TTITLE1=Sien with Cigar Sitting on the Floor near Stove
TTITLE2=The Potato Eaters
TTITLE3=A Pair of Shoes
TTITLE4=The Bridge in the Rain
TTITLE5=Fihing Boats on the Beach at Les Saintes
TTITLE6=Terrace of a Cafe at Night
TTITLE7=The Yellow House
TTITLE8=Sunflowers
TTITLE9=La Berceuse
TTITLE10=Red Vineyard
TTITLE11=Wheatfield with Crows
EXTD=
EXTT0=
EXTT1=
EXTT2=
EXTT3=
EXTT4=
EXTT5=
EXTT6=
EXTT7=
EXTT8=
EXTT9=
EXTT10=
EXTT11=
PLAYORDER=
